<?xml version="1.0" encoding="UTF-8" standalone="no"?>
<!-- Generator: Adobe Illustrator 18.1.1, SVG Export Plug-In . SVG Version: 6.00 Build 0)  -->

<svg
   xmlns:dc="http://purl.org/dc/elements/1.1/"
   xmlns:cc="http://creativecommons.org/ns#"
   xmlns:rdf="http://www.w3.org/1999/02/22-rdf-syntax-ns#"
   xmlns:svg="http://www.w3.org/2000/svg"
   xmlns="http://www.w3.org/2000/svg"
   xmlns:sodipodi="http://sodipodi.sourceforge.net/DTD/sodipodi-0.dtd"
   xmlns:inkscape="http://www.inkscape.org/namespaces/inkscape"
   version="1.1"
   id="Layer_1"
   x="0px"
   y="0px"
   width="48px"
   height="66px"
   viewBox="0 0 48 66"
   enable-background="new 0 0 48 66"
   xml:space="preserve"
   inkscape:version="0.48.2 r9819"
   sodipodi:docname="lock.svg"
   inkscape:export-filename="/Users/robertinant/ArduinoUpstream/build/shared/lib/theme/lock@2x.png"
   inkscape:export-xdpi="360"
   inkscape:export-ydpi="360"><metadata
   id="metadata17"><rdf:RDF><cc:Work
       rdf:about=""><dc:format>image/svg+xml</dc:format><dc:type
         rdf:resource="http://purl.org/dc/dcmitype/StillImage" /><dc:title></dc:title></cc:Work></rdf:RDF></metadata><defs
   id="defs15" /><sodipodi:namedview
   pagecolor="#ffffff"
   bordercolor="#666666"
   borderopacity="1"
   objecttolerance="10"
   gridtolerance="10"
   guidetolerance="10"
   inkscape:pageopacity="0"
   inkscape:pageshadow="2"
   inkscape:window-width="1413"
   inkscape:window-height="785"
   id="namedview13"
   showgrid="false"
   inkscape:zoom="3.5757576"
   inkscape:cx="-25.779661"
   inkscape:cy="33"
   inkscape:window-x="0"
   inkscape:window-y="0"
   inkscape:window-maximized="0"
   inkscape:current-layer="g3" />
<g
   id="g3">
	<path
   fill="#22A2A4"
   d="M39.903,66h-32c-4.4,0-8-3.6-8-8V31.724c0-4.4,3.6-8,8-8h32c4.4,0,8,3.6,8,8V58   C47.903,62.4,44.303,66,39.903,66z"
   id="path5"
   style="fill:#f12323;fill-opacity:1" />
	<path
   style="fill:#ffffff"
   d="m 21.811,44.767 4,0 2.063,10.16 -8,0 z"
   id="polygon7" />
	<path
   style="fill:#ffffff"
   d="m 29.343,40.43 c 0,3.039223 -2.448554,5.503 -5.468999,5.503 -3.020446,0 -5.469,-2.463777 -5.469,-5.503 0,-3.039223 2.448554,-5.502999 5.469,-5.502999 3.020445,0 5.468999,2.463776 5.468999,5.502999 z"
   id="ellipse9" />
	<path
   fill="none"
   stroke="#22A2A4"
   stroke-width="5.0157"
   stroke-miterlimit="10"
   d="M10.782,24.445V13.66   c0,0,0.13-11.112,13.121-11.112s12.926,10.948,12.926,10.948v10.948"
   id="path11"
   style="stroke:#f12323;stroke-opacity:1" />
</g>
</svg>